<svg width="600" height="360" viewBox="0 0 600 360" fill="none" xmlns="http://www.w3.org/2000/svg">
  <defs>
    <linearGradient id="audio-bg" x1="0" y1="0" x2="1" y2="1">
      <stop offset="0%" stop-color="#03030a" />
      <stop offset="100%" stop-color="#050b17" />
    </linearGradient>
    <linearGradient id="audio-wave" x1="0" y1="0" x2="1" y2="0">
      <stop offset="0%" stop-color="#7BF9FF" />
      <stop offset="50%" stop-color="#C6FF40" />
      <stop offset="100%" stop-color="#FFED8A" />
    </linearGradient>
    <linearGradient id="audio-ring" x1="0" y1="0" x2="1" y2="1">
      <stop offset="0%" stop-color="#C6FF40" stop-opacity="0.7" />
      <stop offset="100%" stop-color="#7BF9FF" stop-opacity="0.1" />
    </linearGradient>
  </defs>

  <rect width="600" height="360" rx="32" fill="url(#audio-bg)" />
  <rect x="38" y="32" width="524" height="296" rx="28" stroke="rgba(255,255,255,0.09)" stroke-width="2" />

  <circle cx="190" cy="180" r="110" stroke="url(#audio-ring)" stroke-width="6" fill="rgba(255,255,255,0.02)" />
  <circle cx="410" cy="180" r="110" stroke="url(#audio-ring)" stroke-width="6" fill="rgba(255,255,255,0.02)" />

  <path d="M80 250C110 210 140 250 170 210C200 170 230 230 260 190C290 150 320 230 350 200C380 170 410 250 440 220C470 190 500 260 520 210" stroke="url(#audio-wave)" stroke-width="8" stroke-linecap="round" fill="none" />

  <rect x="270" y="100" width="60" height="160" rx="12" fill="#050d18" stroke="#C6FF40" stroke-width="2" />
  <rect x="285" y="115" width="30" height="60" rx="6" fill="#C6FF40" />
  <rect x="285" y="185" width="30" height="60" rx="6" fill="#7BF9FF" />

  <text x="80" y="320" fill="rgba(255,255,255,0.75)" font-family="'Space Grotesk','Segoe UI',sans-serif" font-size="18" letter-spacing="0.25em">SYNCHRONIZED AUDIO GRID</text>
  <text x="520" y="80" fill="#7BF9FF" font-family="'Space Grotesk','Segoe UI',sans-serif" font-size="14" text-anchor="end">ZERO-DRIFT · MASTERED</text>
</svg>
