<svg width="600" height="360" viewBox="0 0 600 360" fill="none" xmlns="http://www.w3.org/2000/svg">
  <defs>
    <linearGradient id="auto-bg" x1="0" y1="0" x2="1" y2="1">
      <stop offset="0%" stop-color="#050505" />
      <stop offset="100%" stop-color="#0d0f19" />
    </linearGradient>
    <linearGradient id="auto-wave" x1="0" y1="0" x2="1" y2="0">
      <stop offset="0%" stop-color="#FFFFFF" stop-opacity="0.65" />
      <stop offset="100%" stop-color="#C6FF40" />
    </linearGradient>
    <linearGradient id="auto-line" x1="0" y1="0" x2="1" y2="0">
      <stop offset="0%" stop-color="#C6FF40" />
      <stop offset="50%" stop-color="#7BFFDA" />
      <stop offset="100%" stop-color="#FFFFFF" />
    </linearGradient>
  </defs>

  <rect width="600" height="360" rx="32" fill="url(#auto-bg)" />
  <rect x="36" y="32" width="528" height="296" rx="28" stroke="rgba(255,255,255,0.1)" stroke-width="2" />

  <rect x="120" y="90" width="360" height="50" rx="12" fill="rgba(255,255,255,0.04)" />
  <rect x="120" y="155" width="360" height="50" rx="12" fill="rgba(255,255,255,0.05)" />
  <rect x="120" y="220" width="360" height="50" rx="12" fill="rgba(255,255,255,0.04)" />

  <text x="140" y="122" fill="#C6FF40" font-family="'Space Grotesk','Segoe UI',sans-serif" font-size="20" font-weight="600">AUTO TRANSCRIPTION</text>
  <text x="140" y="187" fill="#7BFFDA" font-family="'Space Grotesk','Segoe UI',sans-serif" font-size="20" font-weight="600">MANUAL QC</text>
  <text x="140" y="252" fill="#FFFFFF" opacity="0.5" font-family="'Space Grotesk','Segoe UI',sans-serif" font-size="20" font-weight="600">BRAND FORMATTING</text>

  <path d="M110 270C150 240 180 260 220 260C260 260 280 220 320 220C360 220 380 270 420 260C460 250 490 280 520 250" stroke="url(#auto-wave)" stroke-width="6" stroke-linecap="round" fill="none" />

  <rect x="80" y="70" width="80" height="30" rx="15" fill="rgba(255,255,255,0.05)" stroke="rgba(255,255,255,0.2)" />
  <text x="120" y="90" text-anchor="middle" fill="#C6FF40" font-family="'Space Grotesk','Segoe UI',sans-serif" font-size="14" font-weight="700">SRT</text>

  <path d="M80 300H520" stroke="url(#auto-line)" stroke-width="3" stroke-linecap="round" />
  <text x="80" y="325" fill="rgba(255,255,255,0.6)" font-family="'Space Grotesk','Segoe UI',sans-serif" font-size="15" letter-spacing="0.25em">ACCURACY · SPEED · BRAND</text>
</svg>
