<svg width="600" height="360" viewBox="0 0 600 360" fill="none" xmlns="http://www.w3.org/2000/svg">
  <defs>
    <linearGradient id="podcast-bg" x1="0" y1="0" x2="1" y2="1">
      <stop offset="0%" stop-color="#030e18" />
      <stop offset="100%" stop-color="#0b192a" />
    </linearGradient>
    <linearGradient id="podcast-ring" x1="0" y1="0" x2="1" y2="0">
      <stop offset="0%" stop-color="#45F5FF" />
      <stop offset="100%" stop-color="#6B8BFF" />
    </linearGradient>
    <linearGradient id="podcast-wave" x1="0" y1="0" x2="1" y2="0">
      <stop offset="0%" stop-color="#45F5FF" />
      <stop offset="50%" stop-color="#C6FF40" />
      <stop offset="100%" stop-color="#6B8BFF" />
    </linearGradient>
  </defs>

  <rect width="600" height="360" rx="32" fill="url(#podcast-bg)" />
  <rect x="34" y="30" width="532" height="300" rx="28" stroke="rgba(255,255,255,0.1)" stroke-width="2" />

  <circle cx="300" cy="180" r="120" stroke="url(#podcast-ring)" stroke-width="8" fill="rgba(255,255,255,0.02)" />
  <circle cx="300" cy="180" r="70" stroke="url(#podcast-ring)" stroke-width="4" fill="rgba(255,255,255,0.02)" />
  <circle cx="300" cy="180" r="36" fill="#0d2338" stroke="#45F5FF" stroke-width="2" />

  <rect x="250" y="150" width="100" height="60" rx="18" fill="#050f18" stroke="#45F5FF" stroke-width="2" />
  <rect x="265" y="165" width="70" height="8" rx="4" fill="#C6FF40" />
  <rect x="265" y="182" width="70" height="8" rx="4" fill="#45F5FF" opacity="0.4" />

  <path d="M120 240C170 180 220 220 260 200C300 180 360 130 400 160C440 190 480 140 520 150" stroke="url(#podcast-wave)" stroke-width="6" stroke-linecap="round" fill="none" />

  <text x="80" y="310" fill="rgba(255,255,255,0.7)" font-family="'Space Grotesk','Segoe UI',sans-serif" font-size="18" letter-spacing="0.22em">LONG-FORM REPURPOSING ENGINE</text>
  <text x="520" y="85" fill="#45F5FF" font-family="'Space Grotesk','Segoe UI',sans-serif" font-size="14" text-anchor="end">PODCAST · YOUTUBE · SHORTS</text>
</svg>
