<svg width="600" height="360" viewBox="0 0 600 360" fill="none" xmlns="http://www.w3.org/2000/svg">
  <defs>
    <linearGradient id="trim-bg" x1="0" y1="0" x2="1" y2="1">
      <stop offset="0%" stop-color="#05060a" />
      <stop offset="100%" stop-color="#0d1019" />
    </linearGradient>
    <linearGradient id="trim-line" x1="0" y1="0" x2="1" y2="0">
      <stop offset="0%" stop-color="#C6FF40" />
      <stop offset="50%" stop-color="#8FFF9D" />
      <stop offset="100%" stop-color="#50FFD9" />
    </linearGradient>
    <linearGradient id="trim-laser" x1="0" y1="0" x2="1" y2="1">
      <stop offset="0%" stop-color="#C6FF40" stop-opacity="0.85" />
      <stop offset="100%" stop-color="#C6FF40" stop-opacity="0" />
    </linearGradient>
  </defs>

  <rect width="600" height="360" rx="32" fill="url(#trim-bg)" />
  <rect x="38" y="32" width="524" height="296" rx="28" stroke="rgba(255,255,255,0.08)" stroke-width="2" />

  <rect x="110" y="90" width="380" height="180" rx="22" fill="#04070c" stroke="rgba(255,255,255,0.08)" />

  <g stroke="rgba(255,255,255,0.1)">
    <path d="M150 120H450" />
    <path d="M150 160H450" />
    <path d="M150 200H450" />
    <path d="M150 240H450" />
  </g>

  <path d="M140 220C180 120 220 240 260 160C300 80 340 260 380 160C420 60 460 240 500 160" stroke="url(#trim-line)" stroke-width="8" stroke-linecap="round" fill="none" />

  <rect x="120" y="140" width="100" height="80" rx="18" fill="rgba(198,255,64,0.08)" stroke="rgba(198,255,64,0.4)" />
  <rect x="240" y="120" width="120" height="120" rx="24" fill="rgba(255,255,255,0.02)" stroke="rgba(255,255,255,0.1)" />
  <rect x="380" y="140" width="100" height="80" rx="18" fill="rgba(198,255,64,0.08)" stroke="rgba(198,255,64,0.4)" />

  <rect x="295" y="100" width="10" height="200" fill="url(#trim-laser)" />
  <path d="M300 100V300" stroke="#C6FF40" stroke-width="2" stroke-dasharray="6 6" opacity="0.6" />

  <text x="80" y="320" fill="rgba(255,255,255,0.7)" font-family="'Space Grotesk','Segoe UI',sans-serif" font-size="18" letter-spacing="0.25em">PRECISION SMART CUT</text>
  <text x="520" y="320" text-anchor="end" fill="#C6FF40" font-family="'Space Grotesk','Segoe UI',sans-serif" font-size="14">AI-PACED · ZERO FILLERS</text>
</svg>
