<svg width="600" height="360" viewBox="0 0 600 360" fill="none" xmlns="http://www.w3.org/2000/svg">
  <defs>
    <linearGradient id="social-bg" x1="0" y1="0" x2="1" y2="1">
      <stop offset="0%" stop-color="#090114" />
      <stop offset="100%" stop-color="#130022" />
    </linearGradient>
    <radialGradient id="social-glow" cx="0.5" cy="0.5" r="0.8">
      <stop offset="0%" stop-color="#ff44f8" stop-opacity="0.8" />
      <stop offset="100%" stop-color="#420082" stop-opacity="0" />
    </radialGradient>
    <linearGradient id="social-wave" x1="0" y1="0" x2="1" y2="0">
      <stop offset="0%" stop-color="#FF8FE3" />
      <stop offset="100%" stop-color="#7ED8FF" />
    </linearGradient>
  </defs>

  <rect width="600" height="360" rx="32" fill="url(#social-bg)" />
  <rect x="38" y="30" width="524" height="300" rx="28" stroke="rgba(255,255,255,0.08)" stroke-width="2" />

  <circle cx="180" cy="140" r="160" fill="url(#social-glow)" opacity="0.7" />
  <circle cx="430" cy="220" r="180" fill="url(#social-glow)" opacity="0.5" />

  <g opacity="0.15" stroke="#FFFFFF" stroke-width="1">
    <path d="M80 80L520 80" />
    <path d="M80 120L520 120" />
    <path d="M80 160L520 160" />
    <path d="M80 200L520 200" />
    <path d="M80 240L520 240" />
    <path d="M80 280L520 280" />
  </g>

  <path d="M80 250C140 170 190 220 230 230C270 240 320 150 360 160C400 170 430 250 520 180" stroke="url(#social-wave)" stroke-width="8" stroke-linecap="round" fill="none" />

  <rect x="120" y="90" width="160" height="120" rx="22" fill="rgba(255,255,255,0.08)" stroke="rgba(255,255,255,0.25)" />
  <rect x="140" y="110" width="120" height="10" rx="5" fill="#FF8FE3" opacity="0.85" />
  <rect x="140" y="130" width="80" height="10" rx="5" fill="#7ED8FF" opacity="0.6" />
  <rect x="140" y="150" width="160" height="10" rx="5" fill="#FF8FE3" opacity="0.45" />
  <rect x="140" y="170" width="90" height="10" rx="5" fill="#FFF2AF" opacity="0.75" />

  <circle cx="390" cy="120" r="60" fill="rgba(255,255,255,0.06)" stroke="#FF8FE3" stroke-width="2" />
  <path d="M360 120H420M390 90V150" stroke="#FF8FE3" stroke-width="4" stroke-linecap="round" opacity="0.8" />
  <circle cx="390" cy="120" r="14" fill="#FF8FE3" />

  <text x="80" y="320" fill="rgba(255,255,255,0.8)" font-family="'Space Grotesk','Segoe UI',sans-serif" font-size="18" letter-spacing="0.18em">SOCIAL GRID SYSTEM</text>
  <text x="520" y="320" fill="#FF8FE3" font-family="'Space Grotesk','Segoe UI',sans-serif" font-size="14" text-anchor="end">TRI-PLATFORM DELIVERY</text>
</svg>
