<svg width="600" height="360" viewBox="0 0 600 360" fill="none" xmlns="http://www.w3.org/2000/svg">
  <defs>
    <linearGradient id="caption-bg" x1="0" y1="0" x2="1" y2="1">
      <stop offset="0%" stop-color="#020202" />
      <stop offset="100%" stop-color="#111013" />
    </linearGradient>
    <linearGradient id="caption-highlight" x1="0" y1="0" x2="1" y2="0">
      <stop offset="0%" stop-color="#C6FF40" />
      <stop offset="100%" stop-color="#00FFA9" />
    </linearGradient>
    <linearGradient id="caption-glow" x1="0.5" y1="0" x2="0.5" y2="1">
      <stop offset="0%" stop-color="#C6FF40" stop-opacity="0.8" />
      <stop offset="100%" stop-color="#C6FF40" stop-opacity="0" />
    </linearGradient>
  </defs>

  <rect width="600" height="360" rx="32" fill="url(#caption-bg)" />
  <rect x="36" y="32" width="528" height="296" rx="28" stroke="rgba(255,255,255,0.08)" stroke-width="2" />

  <path d="M120 120C150 90 210 110 240 150C270 190 340 190 380 150C420 110 480 120 510 160" stroke="#C6FF40" stroke-width="3" stroke-linecap="round" opacity="0.7" />

  <rect x="80" y="180" width="440" height="90" rx="18" fill="rgba(255,255,255,0.04)" stroke="rgba(255,255,255,0.12)" />
  <text x="100" y="214" fill="rgba(255,255,255,0.35)" font-family="'Space Grotesk','Segoe UI',sans-serif" font-size="18" letter-spacing="0.3em">CAPTION SEQUENCE</text>

  <g font-family="'Space Grotesk','Segoe UI',sans-serif" font-weight="600" font-size="28">
    <text x="100" y="255" fill="rgba(255,255,255,0.12)">/</text>
    <text x="120" y="255" fill="url(#caption-highlight)">VIRAL</text>
    <text x="220" y="255" fill="rgba(255,255,255,0.35)">CAPTION</text>
    <text x="360" y="255" fill="rgba(255,255,255,0.12)">/</text>
  </g>

  <rect x="160" y="95" width="280" height="56" rx="14" fill="rgba(255,255,255,0.05)" />
  <text x="180" y="130" fill="#C6FF40" font-family="'Space Grotesk','Segoe UI',sans-serif" font-size="24" font-weight="700">HIGH RETENTION LOCK</text>

  <rect x="160" y="95" width="120" height="56" rx="14" fill="url(#caption-glow)" opacity="0.35" />

  <circle cx="120" cy="260" r="40" fill="rgba(255,255,255,0.02)" stroke="#C6FF40" stroke-opacity="0.4" />
  <text x="120" y="268" text-anchor="middle" fill="#C6FF40" font-family="'Space Grotesk','Segoe UI',sans-serif" font-size="22" font-weight="700">01</text>

  <circle cx="480" cy="260" r="40" fill="rgba(255,255,255,0.02)" stroke="#C6FF40" stroke-opacity="0.4" />
  <text x="480" y="268" text-anchor="middle" fill="#C6FF40" font-family="'Space Grotesk','Segoe UI',sans-serif" font-size="22" font-weight="700">03</text>

  <circle cx="300" cy="260" r="40" fill="rgba(255,255,255,0.02)" stroke="#C6FF40" stroke-opacity="0.4" />
  <text x="300" y="268" text-anchor="middle" fill="#C6FF40" font-family="'Space Grotesk','Segoe UI',sans-serif" font-size="22" font-weight="700">02</text>
</svg>
